<?xml version="1.0" encoding="UTF-8" standalone="no"?><!DOCTYPE svg PUBLIC "-//W3C//DTD SVG 1.1//EN" "http://www.w3.org/Graphics/SVG/1.1/DTD/svg11.dtd"><svg width="100%" height="100%" viewBox="0 0 6667 3750" version="1.1" xmlns="http://www.w3.org/2000/svg" xmlns:xlink="http://www.w3.org/1999/xlink" xml:space="preserve" xmlns:serif="http://www.serif.com/" style="fill-rule:evenodd;clip-rule:evenodd;stroke-linejoin:round;stroke-miterlimit:2;"><g id="Suburbs"><path d="M2540.29,1678.79l7.069,13.523l2.932,3.684l-0.875,7.378l2.22,4.157l241.475,38.399l13.798,2.792c1.706,0.192 6.375,0.545 6.375,0.545l6.69,-0.307c0,-0 5.771,-0.807 8.617,-1.257c2.412,-0.795 5.139,-1.67 8.707,-3.065l30.24,-16.722l34.832,-21.122c2.015,-1.137 4.018,-1.891 6.033,-3.031c43.638,-24.689 87.225,-50.562 130.869,-76.881l0.864,12.76l-15.631,23.543l-2.383,6.389l-8.011,11.703l71.11,46.686l23.341,-34.115l62.036,-92.06l-18.199,-30.015l49.641,-30.403l-41.371,-64.237l-22.371,-19.442l-8.176,-1.933l-11.332,-5.323l-24.531,20.534l-6.717,10.319l-3.846,11.722l-2.809,4.793l-1.16,5.19l1.943,5.495l-7.011,12.395l0.245,5.159l-1.832,5.19l-12.241,8.992l-33.398,16.729l-12.395,14.013l-16.029,11.824l-19.88,8.547l-5.08,3.957l-8.011,16.656l-5.614,5.678l-19.129,8.913l-17.877,6.589l-14.898,8.792l-25.016,6.828l-72.027,14.603l-43.882,4.799l-2.87,-2.443l-25.579,6.722l-6.691,-1.551l-5.774,-0.627l-26.509,5.294l-68.327,-0.099l-6.191,9.941l-74.469,-6.922l-10.895,0.322Z" style="fill:#e6e6e6;"/><path id="Fluvial-Vallarta" serif:id="Fluvial Vallarta" d="M3154.99,1572.14l17.35,30.426l0.089,5.339l-1.281,5.492l-2.401,4.652l-3.341,4.341l-5.622,5.792l-4.197,6.64l-3.117,7.391l-29.26,43.028l-1.42,5.071l-2.601,5.595l-5.92,6.191l-86.624,128.207l21.136,15.324l-55.651,79.501l38.648,15.075l29.087,8.813l152.159,27.666l22.081,-104.485l126.517,-10.022l19.223,3.476l5.709,7.751l10.27,15.753l16.505,3.013l19.469,-0.325l19.914,-3.963l3.939,-2.094l13.877,-19.399l3.622,-10.217l2.439,-18.534l-1.19,-8.638l-3.947,-13.286l-4.901,-6.447l-14.827,-8.732l-56.735,-24.034l-70.599,-14.472l-11.406,-5.266l-33.964,-0.275l-0.653,-18.045l-2.166,-18.419l-1.465,-9.573l-30.827,-78.586l-2.05,-5.303l-5.312,-12.699l-25.262,-61.186l-6.169,-10.234l-49.126,29.697Z" style="fill:#e6e6e6;"/><path id="Condominios-La-Marina" serif:id="Condominios La Marina" d="M3415.19,1490.34l21.432,3.326l0.306,65.264l-32.071,-12.395l10.333,-56.195Z" style="fill:#e6e6e6;"/><path d="M3378.38,1535.44l24.137,10.253l7.933,-45.596l-8.844,-1.44l3.979,-24.195l-2.144,-0.593l-4.358,24.303l-14.154,-2.393l-6.549,39.661Z" style="fill:#e6e6e6;"/><path d="M3263.24,1562.71l-14.73,8.253l10.988,20.467l2.686,7.149l7.034,-4.56l7.473,-3.077l8.163,-0.969l6.858,-1.445l24.641,-0.908l4.076,-5.384l-0,-1.79l-7.317,-26.218l-9.401,-4.606l-1.762,0.529l-13.627,7.574l0.962,1.907l-20.377,12.105l-5.667,-9.027Z" style="fill:#e6e6e6;"/><path id="La-Joya" serif:id="La Joya" d="M3314.59,1689.97l8.638,-12.248l11.936,-1.322l13.636,3.745l-0.28,9.584l7.454,1.855l-0,27.526l-24.56,-15.927l-16.824,-13.213Z" style="fill:#e6e6e6;"/><path id="Vallarta-500" serif:id="Vallarta 500" d="M3447.13,1776.15l-0.591,10.606l0.57,3.784l1.483,2.079l1.117,-0.012l2.361,1.421l12.791,7.421l4.942,3.53l3.451,3.401l2.851,5.415l1.675,4.239l1.426,4.451c0.444,3.398 1.181,6.98 2.026,10.579l22.533,-17.409l4.763,-6.491l1.532,-2.407l4.688,-10.711l2.439,-7.565l0.906,-3.689l-0.906,-2.579l-0.844,-7.69l-34.575,0.656l-34.638,0.971Z" style="fill:#e6e6e6;"/><path id="Residencial-Bamboo" serif:id="Residencial Bamboo" d="M3518.59,1774.4l22.352,0l8.245,32.14l-3.869,2.579l-40.992,9.71c2.634,-2.409 9.743,-14.093 10.794,-17.205c2.532,-5.149 5.463,-15.794 5.463,-15.794l-1.993,-11.43Z" style="fill:#e6e6e6;"/><path id="Albatros" d="M3480.67,1835.89l16.367,-13.012l54.035,-12.944l3.602,13.982l-0.886,1.988l-11.63,1.065l-5.253,1.631l-10.789,11.466l-14.332,17.772c7.382,5.726 15.022,11.195 22.925,16.4l-30.137,6.906l-43.808,10.533c-0.074,-0.016 -0.546,0.143 -0.929,0.203c-0.125,0.019 -0.703,0.156 -1.171,0.062c-0.423,-0.084 -0.742,-0.391 -0.817,-0.494c-0.257,-0.452 -0.179,-0.913 -0.114,-1.096c0.143,-0.404 0.221,-0.393 1.087,-1.251l10.609,-13.331l4.152,-7.278l3.077,-7.18l3.175,-16.754l0.837,-8.668Z" style="fill:#e6e6e6;"/><path id="Las-Moras" serif:id="Las Moras" d="M3447.56,1763.34l6.741,2.52l6.828,3.901l5.902,2.001l6.852,0.275l70.9,-0.796l-3.358,-23.263l13.128,-0.215l-5.279,-20.546l-2.047,-6.25l-4.572,-24.716l-33.222,3.102l-1.803,-19.1l-12.785,0.601l2.435,36.267l-49.207,0.92l-0.513,45.299Z" style="fill:#e6e6e6;"/><path id="Diaz-Ordaz" serif:id="Diaz Ordaz" d="M2895.92,1728.74l2.938,-4.421l4.342,-3.991l133.99,-78.885l-27.509,40.539l73.607,49.053l-49.571,72.822l-137.797,-75.117Z" style="fill:#e6e6e6;"/><path id="Versalles" d="M2784.32,1802.35l56.142,-45.403l54.17,-31.481l1.063,1.063l-3.782,4.377l139.482,76.386l-51.165,86.156l5.939,3.786l-11.391,16.343l-80.365,-54.759l-110.093,-56.468Z" style="fill:#e6e6e6;"/><path id="Olimpica" d="M2641.56,1731.25l147.243,25.847l4.558,5.061l-2.056,17.05l-4.027,5.74l-14.63,11.604l-131.088,-65.302Z" style="fill:#e6e6e6;"/><path id="Arboledas" d="M3513.66,1857.29l22.508,16.215l5.835,3.197l16.956,8.653l8.428,-7.003l-1.64,-1.55l4.976,-7.637l22.194,-3.11l5.592,-2.314l-16.909,-39.931l-10.661,-24.915l-16.198,-49.844l-11.639,0.619l7.706,55.21l1.201,4.149l3.901,14.855l-0.975,3.288l-12.904,1.151l-4.352,1.563l-10.634,11.152l-13.385,16.252Z" style="fill:#e6e6e6;"/><path id="Bobadilla" d="M3368.74,1939.77l22.592,-25.247l1.92,-3.855l16.329,-16.682l12.551,0.162l10.222,-0.969l15.458,-3.001l3.314,8.847l5.533,1.969l2.438,-4.72l9.456,-2.693l42.258,-9.53l17.926,-4.542l49.061,52.63l7.837,2.373l9.405,-24.762l20.613,24.909l-6.154,7.033l-6.147,3.935l-7.969,-5.498l-3.611,3.984l-10.312,-8.612l-28.636,76.635l-177.291,-66.057l-6.453,-3.042l-0.34,-3.267Z" style="fill:#e6e6e6;"/><path id="Pitillal-Centro" serif:id="Pitillal Centro" d="M3370.75,1947.66l99.423,36.658l-27.509,77.571l-20.377,-6.946l-30.102,78.96l-53.906,-19.358l-3.345,-7.903l-2.324,-6.355l-1.802,-5.548l-3.462,-10.812l-1.28,-6.308l5.121,-0.664l4.79,0.996l-4.808,-20.245l-2.519,-16.079l-0.297,-4.965l-4.372,-12.708l-16.82,-24.044l-0.592,-1.927l41.05,14.004l23.131,-64.327Z" style="fill:#e6e6e6;"/><path id="La-Floresta" serif:id="La Floresta" d="M3555.49,2013.33l27.604,-74.036l7.187,6.076l1.186,5.631l1.408,1.927l8.891,-2.52l11.634,-7.78l5.315,-6.014l4.315,-4.552l13.908,-17.481l5.094,-8.985l15.746,-26.212l20.446,-26.362l22.711,-23.931l26.077,-23.729l7.812,1.153l4.648,1.85l1.966,0.03l41.164,8.292l17.088,1.561l17.857,3.031l38.678,5.853l-4.816,32.677l3.112,-1.333l0.297,2.741l-4.298,0.963l-9.241,61.923l-13.23,0.474l-37.509,-9.09l-10.307,0.175l-9.031,2.2l-11.925,2.316l7.837,14.43l6.576,11.114l4.539,10.374l16.394,20.47l6.113,4.445l5.226,16.02l-19.539,9.808l-48.818,-71.475l-44.656,35.855l43.266,61.925l23.046,54.727l-0.639,1.248l-203.132,-75.789Z" style="fill:#e6e6e6;"/><path id="Rancho-Alegre" serif:id="Rancho Alegre" d="M3532.56,1881.26l8.211,-3.707l19.223,9.498l8.362,-7.698l24.068,27.194l-9.729,26.197l-4.339,-1.773l-45.796,-49.711Z" style="fill:#e6e6e6;"/><path id="Vallarta-750" serif:id="Vallarta 750" d="M3441.82,1733.36l-0,13.371l-81.692,0l-0,-15.097l7.143,-0l3.785,1.814l70.764,-0.088Z" style="fill:#e6e6e6;"/><path id="Aramara" d="M3359.75,1730.71l7.909,-0.407l3.845,1.782l70.343,0l0.312,-3.034l-0.912,-0l0.931,-3.129l-1.07,-72.711l-83.377,0.538l2.019,76.961Z" style="fill:#e6e6e6;"/><path id="Coapinole" d="M3344.33,2270.12l199.123,74.737l-13.118,-14.895l11.641,-37.528l4.708,-6.764l4.676,-10.846l6.296,-17.605l-1.254,-1.228l4.817,-12.974l20.35,7.943l13.349,-39.147l-5.063,-11.265l-23.43,-27.892l0.208,-6.955l11.353,-30.645l-21.091,-8.361l5.436,-15.759l-138.94,-52.54l-79.061,211.724Z" style="fill:#e6e6e6;"/><path id="Palmar-de-Aramara" serif:id="Palmar de Aramara" d="M3357.67,1652.43l83.451,-0.895l-0.051,-2.805l-2.958,0l-0.856,-85.358l-80.757,-35.216l1.171,124.274Z" style="fill:#e6e6e6;"/><path id="Los-Sauces" serif:id="Los Sauces" d="M3040.88,2132.04l85.392,56.952l22.138,-149.969l24.259,3.713l10.347,-65.347l-56.667,-11.302l-22.877,97.422l-44.823,-8.257l-17.769,76.788Z" style="fill:#e6e6e6;"/><path id="Lazaro-Cardenas" serif:id="Lazaro Cardenas" d="M2586.61,1722.96l52.651,9.483l128.587,66.491l-64.454,59.674l-31.882,25.692l-34.748,27.003l-26.384,17.127l-15.775,2.931l-39.982,-93.646l7.424,-3.985l7.017,-8.58l17.546,-102.19Z" style="fill:#e6e6e6;"/><path id="El-Calvario" serif:id="El Calvario" d="M3444.85,2062.99l28.981,-77.173l222.859,83.148l-13.598,28.863l-21.362,-4.845l-22.286,61.163l-79.753,-29.187l5.05,-15.632l-119.891,-46.337Z" style="fill:#e6e6e6;"/><path id="La-Vena" serif:id="La Vena" d="M2887.9,1861.04l-76.681,-39.685l-5.968,21.006l-1.042,16.338l28.725,35.004l16.151,5.418l10.316,1.928l5.418,-4.22l23.081,-35.789Z" style="fill:#e6e6e6;"/><path id="Valentin-Gomez-Farias" serif:id="Valentin Gomez Farias" d="M2780.12,1806.34l27.717,13.442l-6.46,24.773l-1.25,16.907l18.495,18.469l12.869,16.36l12.296,4.637l10.646,1.718l-48.053,74.464l-40.095,12.788l-4.482,-14.69l35.445,-66.65l-85.388,-46.65l68.26,-55.568Z" style="fill:#e6e6e6;"/><path id="Barrio-Santa-Maria" serif:id="Barrio Santa Maria" d="M2681.88,1887.82l26.597,-23.159l84.749,45.414l-34.445,65.179l6.051,20.308l-61.293,20.146l-6.433,-56.182l1.381,-51.79l-16.607,-19.916Z" style="fill:#e6e6e6;"/><path id="_5-de-Diciembre" serif:id="5 de Diciembre" d="M2367.17,1651.25l91.116,24.344l46.294,1.445l18.409,2.015l15.977,0.278l8.962,17.436l1.597,19.451l33.032,5.765l-16.53,102.037l-5.011,5.975l-62.464,29.842l-30.197,9.353l-33.803,3.377l-6.707,-1.211l1.669,-3.581l-18.949,-7.03l1.449,-0.164l1.927,-2.595l1.957,-8.524l5.148,4.137l2.447,-1.049l9.609,-2.683l6.236,-0.019l1.903,10.197l7.511,-1.24l7.572,-0.37l-0.633,-11.475l0.923,-7.616l0.607,-10.475l1.543,-3.063l3.719,-22.386l-23.155,-5.646l-1.165,3.885l-7.35,-4.719l-5.449,-4.34l-6.888,-0.947l-3.645,5.236l-21.17,-3.015l3.686,-18.734l-21.544,-3.446l2.19,-12.214l-8.845,-1.629l-13.085,0.03l-15.32,-0.864l-7.978,-2.551l-8.559,-1.851l-6.981,-5.038l-10.179,-4.176l2.227,-4.922l5.595,-9.034l52.302,-78.196Z" style="fill:#e6e6e6;"/><path id="Centro-Vallarta" serif:id="Centro Vallarta" d="M2323.49,1710.35l38.942,-56.636l-115.734,-56.22l-10.889,0.986l-14.406,-9.056l-9.831,-13.808l1.248,-5.846l-4.022,-4.249l-23.643,-14.171l-40.806,-21.601l-9.94,42.721l-1.641,13.973l0.237,15.886l6.875,17.82l4.476,27.652l9.695,0.69l23.418,-37.61l31.703,20.446l13.634,10.492l12.686,9.633l4.861,6.046l6.4,5.9l-7.373,10.808l23.058,15.988l7.136,-10.769l53.916,30.925Z" style="fill:#e6e6e6;"/><path id="Fracc.-Villas-Universidad" serif:id="Fracc. Villas Universidad" d="M4002.61,1850.48l66.225,-20.377l4.631,57.38l-0.89,129.706l-3.657,-0l-0,-65.177l-35.262,0.555l0.092,48.497l-27.494,0l3.557,-31.287l2.075,-6.261l17.191,-30.454l-4.298,-1.186l1.408,-38.938l-18.704,1.839l-4.874,-44.297Z" style="fill:#e6e6e6;"/><path id="Villa-de-Guadalupe" serif:id="Villa de Guadalupe" d="M3282.43,2250.15l-2.39,5.359l4.299,13.303l0.658,13.81l-0.455,13.961l-42.194,-29.589l-31.309,29.783l2.67,17.361l-0.135,23.145l0.6,8.247l2.428,19.677l8.043,24.356l2.024,0.456l-2.681,-8.043l0.556,-3.592l0.607,-17.148l6.374,-3.389l7.031,1.619l19.323,14.163l0.202,6.677l10.17,8.831l8.688,19.72l5.21,2.327l4.098,-9.763l2.276,0.455l0.047,1.926l0.953,7.356l0.032,3.09l0.647,7.082l2.145,11.29l0.567,6.435l9.653,-0.433l24.786,4.493l-5.817,16.44l0.202,1.113l17.135,5.81l63.694,-171.391l-61.158,-23.433l-58.979,-21.504Z" style="fill:#e6e6e6;"/><path id="Ex-Haciendas-Pitillal-2" serif:id="Ex-Haciendas Pitillal 2" d="M3238.76,1987.28l17.287,2.148l19.344,3.417l7.83,0.961l4.373,0.825l1.797,2.546l2.839,5.381l2.427,3.098l4.293,6.1c1.174,2.3 2.295,4.579 3.442,6.869c2.078,4.149 4.241,8.332 6.963,12.738l0.601,5.011l0.948,4.819l0.282,6.418l-1.429,7.244l-0.952,1.805l-0.989,1.666l-0.697,2.107l-1.117,2.454l-4.139,6.191l-9.489,18.015l-5.095,7.414l-5.279,5.875l-5.765,5.12l-18.974,18.396c0,0 -2.988,3.442 -4.461,5.18c-1.862,2.198 -4.73,5.323 -6.714,8.008c-1.698,2.297 -5.399,6.579 -5.399,6.579l-2.35,3.132l-8.735,14.863l-8.672,18.727l-0.596,4.398c-5.341,-0.869 -10.624,-1.988 -15.933,-3.048l1.519,-12.694l32.84,-181.763Z" style="fill:#e6e6e6;"/><path id="Ex-Haciendas-Pitillal" serif:id="Ex-Haciendas Pitillal" d="M3232.04,2258.46l15.732,7.436l35.417,27.698l0.192,-10.472l-0.961,-14.518l-2.584,-8.579l-2.483,-5.248l1.013,-3.987l-1.954,-4.4l-3.36,-18.057l-0.857,-12.538l-2.482,-7.718l3.093,-15.83l7.678,-12.999l2.1,-11.771l1.597,-1.593l-0.916,-14.625l4.189,-8.268l-5.109,-1.467l0.506,-20.714l2.49,-5.76l-3.329,-1.405l-12.278,14.409l-11.761,15.365l-5.374,7.019l-10.818,12.033l-6.338,12.865l-3.984,13.436l-3.098,36.99l5.266,3.966l-1.587,28.732Z" style="fill:#e6e6e6;"/><path id="La-Playita" serif:id="La Playita" d="M3279.15,2248.02l-1.467,-2.428l-3.136,-18.463l-0.657,-12.292l-2.732,-7.84l2.529,-14.138l10.117,-14.088l4.957,-13.607l-3.267,-0.633l-0.866,-13.516l5.019,-9.503l-6.267,-2.486l1.193,-20.139l2.425,-4.997l20.162,-1.564l22.745,2.542l-50.755,133.152Z" style="fill:#e6e6e6;"/><path id="Del-Toro" serif:id="Del Toro" d="M3283.1,2247.53l58.566,21.99l49.978,-132.883l-59.841,-21.674l-48.703,132.567Z" style="fill:#e6e6e6;"/><path id="San-Esteban" serif:id="San Esteban" d="M3225.56,2382.22l0.336,-2.847l0.318,-4.897l0.017,-3.412l0.248,-8.045l5.392,-3.881l5.128,1.521l19.523,13.449l0.265,6.774l10.568,9.218l8.563,19.699l6.998,2.947l3.738,-9.352l0.279,0.003l-0.012,2.355l0.052,0.577l0.556,5.16l-0.299,0.906l0.926,16.163l0.926,4.492l0.241,2.675l1.328,6.659l12.41,0.049l19.778,4.86l-4.576,12.305l0.027,12.02l20.288,47.452l-1.817,1.004l5.218,24.126l-0.307,2.762l-2.426,5.765l-3.193,6.613l2.808,9.728l0.943,8.958l-5.304,4.42l-13.516,5.658l-2.318,0.746l-10.058,4.734l-11.001,2.633l-3.787,2.837l-5.206,4.715l-3.586,5.697l-4.174,13.039l-6.041,5.181l-5.663,-3.047l-3.438,-2.784l-5.607,-8.717l-10.539,-10.822l-22.627,-34.865l-5.64,-26.544l0.328,-4.256l3.326,-13.729l-3.051,-3.63l-1.73,-14.876l-0.978,-13.202l-2.235,-5.622l-0.21,-3.982l-3.422,-11.926l9.272,-20.998l11.385,-24.866l0.546,-9.546l0,-6.679l-0.298,-2.597l-0.315,-1.902l-1.868,-6.525l-1.537,-2.305c-1.938,-4.087 -3.587,-8.102 -4.952,-12.046Z" style="fill:#e6e6e6;"/><path id="Independencia" d="M2999.26,2220.34l9.68,-16.532l23.858,-73.244l108.97,72.462l68.303,46.29l-3.706,17.676l0.109,21.555l4.311,18.171l-1.528,30.64l-6.221,30.477l2.803,48.025l-13.752,11.951l-10.641,-11.078l-14.351,9.55l-25.92,-24.119l1.361,-90.334l-49.48,-33.979l-8.064,34.755l-26.582,-5.725l-10.942,-13.131l-7.556,-4.936l-1.714,-5.603l-11.765,-22.721l-4.951,-5.644l-22.222,-34.506Z" style="fill:#e6e6e6;"/><path id="Vista-Oceano" serif:id="Vista Oceano" d="M3764.54,2827.26l24.614,6.04l-17.819,74.069l-21.745,-19.178l14.95,-60.931Z" style="fill:#e6e6e6;"/><path id="El-Mangal" serif:id="El Mangal" d="M3405.09,2295.86l44.05,15.786l34.552,13.644l-60.185,167.015l6.883,1.402l-2.979,11.362l-11.292,21.828l-4.716,22.125l-41.383,-3.034l-19.942,-3.384l-4.598,-11.059l-4.133,-12.747l-9.08,-17.579l-0.873,-6.723l5.413,-15.395l10.128,-25.029l20.974,-58.373l9.094,-24.238l12.006,-32.332l16.081,-43.269Z" style="fill:#e6e6e6;"/><path id="Fracc.-Marina-Vallarta" serif:id="Fracc. Marina Vallarta" d="M3540.35,1341.37l63.315,-78.178l19.743,-15.293l22.191,-23.501l-3.737,-2.937l4.254,-5.448l-14.09,-9.298l20.845,-34.872l3.958,-3.539l23.454,-6.065l49.227,42.17l3.583,0.253l10.574,-3.378l7.396,29.679l-3.085,8.499l-25.455,11.057l-0.038,3.75l-8.793,-0.038l-15.891,-6.48l-29.659,-19.022l-1.116,-0.281l-2.363,1.181l-28.752,36.148l0.577,2.299l20.153,15.911l2.976,-0.015l7.82,-9.124l-0.031,-1.389l-3.692,-5.867l0.734,-3.01l5.446,-7.239l2.832,-2.585l3.357,0l4.52,0.306l7.145,8.667l3.874,1.907l-4.202,7.749l-23.632,31.585l-2.654,1.723l-16.997,18.161l-4.749,3.492l-11.176,-10.943l7.87,-5.727l5.075,-6.519l6.799,-8.01l-21.187,-17.229l-31.779,40.987l20.24,8.294l1.975,-0.67l6.444,-8.606l12.517,13.15l-8.338,8.714l-5.626,3.457l-6.986,-0.024l-21.757,-10.178l-2.218,-0.263l-2.28,-1.445l-2.581,3.391l2.32,1.877l-12.074,15.346l37.252,26.519l17.028,-13.233l61.729,-55.011l23.592,-13.174l40.797,-18.324l40.729,-16.677l3.784,-0.466l6.111,-2.678l2.328,-1.629l156.648,-64.881l-26.454,-73.017l-17.362,-35.845l-17.567,-28.19l-65.177,-71.102l36.319,-27.921l-111.366,-119.684l69.847,-49.533l-16.879,-72.06l-11.608,20.015l-17.788,32.502l-15.553,28.405l-17.974,32.689l-16.391,27.426l-6.599,10.856l-20.563,30.289l-14.623,21.427l-35.368,52.591l-21.653,37.95l-16.297,28.363l-31.384,41.535l-13.504,15.646l-6.185,21.491l-11.929,22.646l-31.087,41.795l-8.22,15.826l-51.41,40.953l-9.76,9.388l-20.253,42.245l8.642,15.586l11.861,13.589l17.345,-0.119l1.728,-2.861l6.974,-1.967l8.106,1.014l15.044,12.058l30.814,12.988Z" style="fill:#e6e6e6;"/><path id="Villas-Las-Flores" serif:id="Villas Las Flores" d="M3710.64,1315.5l0.813,1.969l104.204,-36.052l20.621,59.956l35.552,-5.881l3.427,17.601l131.274,2.469l0.286,4.588l11.478,-2.72l30.676,11.322l41.587,-5.087l-0.909,-9.625l16.749,-1.75l-25.983,-27.789l-38.998,-42.803l-3.567,-3.991l-11.586,-12.779l-15.497,-16.689l-4.864,-5.292l-13.923,-12.398l-16.474,-10.418l-5.293,-1.192l-8.631,-0.668l-13.78,0.286l-7.295,1.574l-8.178,2.575l-17.501,7.013l-28.18,11.301l-33.378,13.327l-22.053,8.869l-13.017,5.531l-38.671,17.023l-41.269,18.143l-27.62,11.587Z" style="fill:#e6e6e6;"/><path id="Parque-Las-Palmas" serif:id="Parque Las Palmas" d="M4161.4,1762.3l4.709,14.364l15.557,38.444l24.833,-0.36l51.158,3.703l176.176,-151.719l-15.013,-0.985l-19.61,-5.424l-19.609,-14.662l-36.835,-37.997l-181.366,154.636Z" style="fill:#e6e6e6;"/><path id="Hermosa-Provincia" serif:id="Hermosa Provincia" d="M2657.25,1926.15l29.881,12.207l2.708,-22.365c-0.447,-8.083 -4.086,-12.494 -9.388,-13.851c-5.27,-1.349 -10.449,-0.577 -14.212,4.704l-8.989,19.305Z" style="fill:#e6e6e6;"/><path id="Lopez-Mateos" serif:id="Lopez Mateos" d="M2432.51,1877.16l38.537,-5.124l18.531,-5.059l61.648,-27.975l44.667,103.281l18.848,-6.737l25.937,-17.124l32.281,-27.104l3.733,6.163l-8.811,4.167l-7.205,9.331l-6.11,17.148l25.566,10.283l6.958,1.472l0.226,21.023l-11.922,-4.231l-7.085,25.008l1.416,-0.222l6.827,15.537l-0.833,4.027l-2.223,4.202l1.389,7.135l-0.59,0.972l4.706,14.45l-7.25,2.666l-10.444,-26.721l-49.845,21.076l2.821,23.979l-0.975,8.233l-10.142,14.625l-2.777,9.513l-3.334,13.299l-33.798,9.436l-12.1,-27.725l-68.596,-1.605l10.312,-13.799l-3.507,-9.34l1.493,-2.969l-1.007,-0.868l-5.781,-24.381l0.694,-5.468l6.042,1.18l3.055,-0.555l-0.208,2.708l6.77,22.499l2.084,3.09l2.108,1.766c-1.155,0.587 -1.908,2.253 -1.802,3.409c0.074,0.82 0.328,1.537 0.705,2.277c0.298,0.587 0.723,1.106 1.279,1.493c0.644,0.449 1.972,0.586 2.81,0.495c0.838,-0.091 1.657,-0.217 2.235,-0.683c0.437,-0.351 0.97,-0.825 1.177,-1.398c0.361,-0.998 0.716,-3.267 -0.612,-4.758l-0.025,-4.261l7.666,-1.533l0.347,-2.799l-0.575,-12.284l8.889,-1.055l3.166,-1.111l-8.332,-19.384l12.501,-6.015l16.83,37.865l13.373,-22.47l7.666,0.944l6.827,-2.023l-43.796,-99.614l-41.722,-11.673l-60.661,-25.255l-0.052,-1.429Z" style="fill:#e6e6e6;"/><path id="Emiliano-Zapata" serif:id="Emiliano Zapata" d="M1973.71,1504.92l11.481,60.769l-12.715,14.66l2.222,8.58l11.604,22.16l8.519,5.926l22.036,25.678l4.815,25.616l15.925,-2.283l15.268,77.53l1.136,2.963l16.468,6.144l2.17,2.103l4.71,8.088l9.903,11.78l5.34,5.76l19.806,-5.288l20.219,-31.594l7.411,-20.124l-0.906,-12.67l-23.183,-51.914l4.048,-29.426l-0.638,-104.922l-17.331,-10.171l-64.563,-2.713l-63.745,-6.652Z" style="fill:#e6e6e6;"/><path id="Amapas" d="M1788.74,1449.87l14.654,-14.369l2.217,-2.796l1.33,-1.304l0.574,0.841l2.594,-1.2l1.23,-1.001l1.374,0.271l0.857,0.848l9.857,15.416l5.231,3.718l13.582,4.649l4.273,7.908l19.981,12.652l2.071,5.075l14.128,10.869l35.138,7.5l23.964,3.366l12.815,0.582l16.657,3.61l10.438,59.938l-12.624,13.279l11.438,29.334l10.808,11.88l-2.775,5.854l-0,4.894l-1.948,6.977l-4.975,4.611l-12.622,6.149l5.136,3.529l4.789,4.487l2.216,3.438l4.846,0.601l2.699,12.249l-14.783,3.133l1.813,10.563l-9.258,5.456l1.386,3.761l0.259,3.34l-2.408,5.747l-0.606,2.939l-0.003,2.399l-0.915,3.664l-1.471,1.719l-2.402,2.092l-2.713,1.222l-8.337,2.806l-8.74,1.181l-50.919,-35.611l-8.296,-5.847l-17.869,-12.33l-7.249,-4.984l-26.199,-23.792l-15.506,-8.794l8.804,-8.641l20.259,-19.854l8.756,-8.437l3.721,-2.848l4.078,-6.747l0.906,-2.46l0,-2.573l5.579,-17.608l0.254,-3.043l0.953,-3.646l0.248,-2.361l1.492,-4.546l3.334,-1.802l-0.63,-4.56l-1.631,-1.294l-0.389,-4.428l-1.812,-1.682l-4.09,3.106l-6.294,-5.501l2.105,-1.867l-2.639,-5.297l-0.224,-0.41l-2.349,-4.848l-3.728,-8.461l-8.983,-20.49l-19.687,-12.927l-15.317,-21.204l-17.855,-6.422l-0.598,-1.668Z" style="fill:#e6e6e6;"/><path id="El-Cerro" serif:id="El Cerro" d="M2144.39,1649.57l11.025,0.246l22.476,-35.924l20.941,13.199l22.39,15.642l13.161,10.733l9.655,10.033l-7.605,12.028l27.105,17.379l6.324,-10.742l52.806,30.09l-10.809,18.41l-7.896,11.802l-3.496,6.257l-4.919,8.673l-0.949,1.294l-2.632,4.66l-15.836,7.681l-3.665,0.396l-6.451,0.318l-1.909,2.262l-6.174,16.416l2.899,11.15l0.829,5.558l9.889,10.752l3.452,6.257l-0.13,2.833l-5.739,10.22l-8.108,12.164l-10.494,16l-21.998,-21.636l-7.335,6.861l-3.797,-9.795l-11.392,-5.782l-4.156,-20.199l-5.726,-22.907l4.624,-36.063l-26.722,-7.54l-1.467,3.237l-14.361,-0.958l-11.357,-7.87l1.074,-11.956l-3.527,-81.179Z" style="fill:#e6e6e6;"/><path id="Conchas-Chinas" serif:id="Conchas Chinas" d="M1590.16,1510.26l39.123,21.341l23.463,-27.845l1.403,-2.593l2.642,1.312l10.385,-2.394l5.898,2.585l-0.64,-3.159l10.62,-11.216l15.27,-22.262l0.917,-2.966l3.129,-4.693l6.041,-5.879l11.601,-0.513l-0.663,3.286l6.131,2.9l2.127,-3.397l10.23,5.393l1.934,3.348l4.142,1.588l1.208,-3.383l6.759,4.075l6.092,-13.956l12.859,-4.8l10.39,2.934l5.109,-0.31l19.176,-20.022l2.362,0.002l1.493,-0.271l1.278,-0.679l1.853,0.15l-5.481,-20.895l-6.864,-9.139l-8.334,-0.754l-3.637,-3.104l-4.043,-2.165l-6.429,-1.126l-9.577,-11.11l0.083,-10.315l-10.721,3.281l-15.769,-3.363l-28.515,-3.074l-16.708,0.621l-27.115,4.876l-7.245,-10.067l-6.265,2.384l-8.59,-3.729l-6.882,-5.339l-4.484,-5.424l-4.187,-2.728l-8.815,3.686l-8.881,-2.143l-7.39,5.546l-10.662,-3.06l-0.894,2.704l-14.367,3.364l-0.325,8.778l0.936,2.154l4.235,8.072l2.515,8.705l14.678,4.851l3.167,2.045l-3.703,8.344l0.039,7.886l-8.784,-0.02l-7.259,7.897l-0.06,4.857l7.209,-0l-0,4.841l7.291,0.596l-1.198,4.894l2.758,19.462l-1.566,3.061l-0,13.658l-4.093,0.309l-8.243,5.174l-1.486,6.023l3.86,7.76l7.22,-3.919l4.305,-4.691l4.132,0.386l-13.127,21.836l-3.071,0.923l-1.46,2.329l1.47,6.286Z" style="fill:#e6e6e6;"/><path id="Amapas-Conchas-Chinas" serif:id="Amapas Conchas Chinas" d="M1637.53,1531.35l9.662,-13.668l4.948,-2.18l4.007,0.118l5.838,-0.988l4.633,-5.261l6.801,-3.478l24.69,-36.528l1.446,-2.115l3.673,-7.344l5.855,-5.001l1.189,-1.189l7.627,0.039l-0.247,2.069l8.074,4.096l2.084,-3.648l8.37,4.2l2.473,4.584l5.835,1.925l1.178,-3.32l6.747,4.324l6.785,-15.255l11.204,-3.922l10.729,5.556l1.81,-0.151l1.186,0.409l-1.334,2.285l-3.658,9.202l0.301,5.55l-5.52,10.436l-1.238,12.792l-6.137,3.699l-6.805,9.296l-1.306,9.844l4.392,2.122l-2.665,6.106l-6.608,2.019l-5.698,9.652l0.51,5.577l-1.733,9.844l-5.62,18.618l-6.735,14.714l3.368,7.103l17.441,11.193l1.148,-0.61l0.832,0.286l0.63,1.215l8.023,0.085l8.933,1.098l19.795,0.852l1.181,-8.182l4.727,-3.691l13.295,-1.918l6.263,-2.746l6.866,-4.886l4.123,-9.226l1.373,-3.603l1.132,-5.491l0.172,-0.893l-0.446,-5.456l-0.678,-2.396l-0.351,-2.812l4.304,-2.508l3.937,-5.208l10.028,-7.829l6.767,-6.699l7.093,6.733l4.187,-3.364l0.584,0.755l0.549,4.565l1.579,1.27l0.549,1.407l0.034,1.956l-3.157,0.892l-0.618,1.648l-0.584,2.23l-1.166,4.222l-0.653,3.74l0,3.055l-5.834,17.022l0,3.02l-4.564,8.443l-2.712,1.785l-38.749,37.857l-1.111,0.281l-25.365,-12.051l-4.712,-2.301l-4.21,-2.105c-1.438,-0.497 -3.012,-1.333 -5.022,-2.745l-8.342,-4.436l-6.962,2.759l-3.303,-0.858l-5.62,-3.561l-3.475,-2.145l-8.065,-6.177l-36.419,-27.272l-41.517,-18.894l-18.936,-12.568l-3.085,-7.869Zm49.296,-20.268l5.229,2.413l2.614,0.067l3.687,-0.335l2.949,-1.34l1.542,-2.749l1.072,-2.011l1.475,-1.742l1.944,-1.609l2.748,0.469l2.413,2.279l5.228,-10.859l6.167,-6.368l-6.825,-5.234l1.667,-1.354l5.3,-12.109l-7.593,-6.392l-3.389,-0.643l-10.335,1.479l0.897,6.715l-4.247,7.765l1.416,0.858l-13.959,30.7Z" style="fill:#e6e6e6;"/><path id="F.-Amapas-Sur" serif:id="F. Amapas Sur" d="M1735.81,1586.39l3.003,5.684l16.409,10.886l2.735,0.59l0.643,1.072l34.642,1.556l1.34,-8.312l4.344,-3.486l14.317,-2.735l12.227,-6.381l5.872,-11.475l1.018,-5.256l-1.662,-13.245l4.987,-2.788l4.907,-5.389l9.009,-7.561l9.116,-8.151l-2.687,-3.085l-3.432,-3.054l-2.471,-3.81l-5.114,-11.222l-1.029,-1.064l-4.531,-11.291l-1.818,-2.386l-14.449,-9.283l-2.488,-2.419l-0.995,-0.858l-1.133,-0.996l-6.177,-6.109l-6.847,-10.21l-6.59,-8.168l-9.901,-0.995l-0.034,-0.618l-1.819,-0.652l-1.514,-0.169l-4.873,9.609l0.617,8.065l-6.555,11.24l-1.338,11.394l-5.72,3.882l-6.478,8.665l-1.244,9.181l3.99,2.059l-3.69,8.151l-5.834,1.802l-5.92,8.944l1.158,6.864l-1.287,8.237l-5.705,19.154l-6.999,14.133Z" style="fill:#e6e6e6;"/><path id="_12-de-Octubre" serif:id="12 de Octubre" d="M3885.03,2532.16l12.943,192.867l11.81,3.507l17.007,-67.756l10.306,-31.421l-1.76,-29.409l-1.675,-14.495l4.693,-5.195l4.356,2.43l5.949,1.843l0.948,-16.274l-4.216,-21.018l-13.499,-11.191l-6.449,-7.605l-14.645,2.107l-2.086,0.736l-3.466,-0.327l-20.216,1.201Z" style="fill:#e6e6e6;"/><path id="Palma-Real" serif:id="Palma Real" d="M3912.72,2729.72l20.902,6.04l56.157,-76.522l6.296,-4.522l5.136,-6.597l-1.837,-12.09l-10.204,-5.924l-2.978,-9.687l-1.552,-2.565l-1.003,-2.663l-1.533,-2.997l0.37,-13.462l-2.039,-3.538l-11.178,0.049l-13.339,-9.274l-11.379,4.297l-6.584,-2.383l-0.27,2.727l1.253,9.336l1.179,15.821l0.639,12.934l-7.727,23.001l-20.309,78.019Z" style="fill:#e6e6e6;"/><path id="La-Aurora" serif:id="La Aurora" d="M3445.34,1564.67l1.619,51.659l5.246,-0.128l5.694,0.576l13.947,4.606l39.025,0.128l2.623,-7.549l5.31,-3.647l1.168,-2.865l3.287,1.675l62.755,-7.89l-11.808,-53.449l-6.974,-17.722l-85.619,11.214l4.375,17.834l-40.648,5.558Z" style="fill:#e6e6e6;"/><path id="Del-Cerro" serif:id="Del Cerro" d="M2264.84,1804.84l-0.321,-4.616l-2.195,-10.678l1.18,-6.273l3.406,-8.107l2.097,-1.54l4.225,0l7.37,-1.801l5.732,-1.802l7.403,-4.193l5.405,-8.123l4.16,-8.598l2.587,-4.291l12.857,5.961l4.75,3.178l7.468,2.129l4.029,1.867l8.254,1.212l10.007,0.049l21.815,1.818l-2.162,12.807l1.219,0.398l21.075,3.348l-3.274,17.373l0.254,0.217l23.487,3.671l3.927,-5.481l5.69,1.185c4.449,4.149 8.93,8.008 13.449,11.876l1.52,-5.346l17.604,3.957l2.551,0.804l-2.014,12.926l-2.214,0.001l-0.657,7.145l-0.224,10.706l-1.342,1.062l-0.223,4.416c-0.151,1.797 -0.502,3.444 -0.951,5.017c0.042,1.879 0.034,3.795 -0.223,5.898l-0,2.6c-2.994,0.413 -5.932,1.021 -9.224,1.733l-2.6,-11.628l-2.739,1.286l-6.988,0.922l-7.407,1.286l-3.382,-0.979l-3.634,-2.012l-0.279,-1.649l8.86,-6.345l1.37,-1.733l-0.699,-2.069l-1.23,-2.124l-5.758,-8.721l-1.565,-4.332l-0,-2.739l0.307,-1.65l0.056,-2.976l-0.698,-1.929l-1.985,-2.39l-23.633,4.724l-3.55,-1.482c-0.185,-5.246 -0.625,-10.578 -1.258,-15.974l-2.501,-3.116l-3.606,-0.643l-3.218,1.588l-7.2,6.418l-7.514,1.811l-1.49,-1.991l-0.283,-3.397l-0.291,-7.178l-1.52,-8.352l-2.169,-7.144l-0.377,-2.662l-1.237,-2.13l-2.238,-0.652l-2.275,-0.329l-6.703,2.809l-5.313,2.522l-3.542,2.915l-2.415,4.874l-1.943,6.01l-2.06,5.524l-2.09,3.95l-2.318,1.546l-1.746,0.257l-1.116,-0.744l-0.888,-2.547l-1.202,-3.092l-1.603,-2.604l-1.946,-1.317l-2.032,0.029l-0.43,1.374l-0.629,3.062l-0.544,5.095l-1.861,4.351l-5.381,8.286l-3.434,4.15l-8.916,3.148l-3.263,2.491l1.059,4.207l0.879,6.602l-1.803,5.052l-1.202,-0.515l-0.286,-2.29l0.343,-4.665l-3.52,-3.922l-5.839,-0.257c-4.419,-6.385 -9.146,-12.512 -14.022,-18.515Z" style="fill:#e6e6e6;"/><path id="Magisterio" d="M3857.8,2156.32l11.701,154.413l22.022,-8.252l30.95,-17.467l65.602,-39.537l1.145,-7.747l-16.715,-52.513l-52.885,22.424l-12.701,-3.602l-2.931,-5.74l-2.759,-13.783l3.431,-0.627l-3.896,-21.7l-8.949,1.153l-3.361,-9.438l-30.654,2.416Z" style="fill:#e6e6e6;"/><path id="Villas-Del-Real" serif:id="Villas Del Real" d="M3854.33,2161.48l-13.906,-2.401l-27.211,-3.301l-2.026,37.599l-0.114,1.572l0.223,6.489l0.666,27.193l0.045,1.456l3.693,29.233l0.321,2.033l0.8,1.68l8.25,-4.745l1.627,-0.614l16.14,-8.697l16.678,-8.808l-5.186,-78.689Z" style="fill:#e6e6e6;"/><path id="El-Conejo" serif:id="El Conejo" d="M3779.41,2147.03l1.708,0.907l43.498,7.03l12.379,-32.834l-72.831,-27.456l8.504,17.807l6.742,34.546Z" style="fill:#e6e6e6;"/><path id="Lomas-Del-Calvario" serif:id="Lomas Del Calvario" d="M3559.23,2255.58l3.101,-8.904l37.716,14.056l-4.636,15.974l60.273,23.085l-6.295,16.633l2.669,0.541l1.209,0.917l2.827,30.472l0.884,57.183l1.704,0.27l-1.94,3.36l-14.084,15.984l-36.955,6.714l-12.016,-49.829l-15.777,-6.998l-43.457,-44.424l-0.711,-2.623l10.834,-30.099l1.18,-7.381l8.92,-3.368l5.066,-5.364l7.677,-18.147l-8.189,-8.052Z" style="fill:#e6e6e6;"/><path id="Lomas-De-Enmedio" serif:id="Lomas De Enmedio" d="M3658.29,2301.05l-5.727,14.584l2.17,1.494l3.308,31.017l28.776,18.764l4.34,3.664l2.454,3.023l3.45,1.21l2.49,2.81l5.976,3.592l6.758,2.775l4.482,0.284l4.162,-1.245l14.266,14.806l6.669,7.648l9.352,9.578l4.126,4.183l6.374,5.208l5.655,-4.784c1.924,-0.791 3.526,-1.675 4.893,-2.626c2.495,-1.621 5.062,-3.346 6.983,-4.147l5.49,-2.477l9.768,-0.289l9.883,-2.601l6.685,0.727l12.677,-0.279l6.278,-3.844l5.925,15.291l0.334,6.111l8.142,2.111l6.66,0.907l8.833,-0.286l3.867,0.31l7.734,-0.048l-0.663,-10.934l-0.298,-20.813l0.037,-0.969l-1.23,-12.514l-0.97,-20.589l0.037,-4.289l-4.289,-41.27l-2.313,0.857l-3.543,0.896l-6.192,2.461c-7.097,-1.993 -13.914,-4.037 -19.917,-6.229l-3.543,-0.223l-11.376,-2.742l-3.805,-0.634l-8.019,-2.76l-6.713,8.579l-2.089,2.387l-2.648,1.977l-2.387,1.491l-1.555,0.609c-1.877,1.248 -3.536,2.048 -5.047,2.748l-3.88,0.345l-6.766,-7.516c-0.481,-0.419 -0.85,-0.893 -1.127,-1.413l-4.698,-2.54l-1.726,-1.783l-3.762,-2.559l-12.23,-8.21l-3.247,-0.974l-4.869,-2.329l-1.031,-0.367l-5.194,-0.612l-3.306,0.612l-4.492,2.077l-9.872,2.899c-6.354,1.375 -12.863,3.1 -19.381,4.845l-2.246,5.867l-38.883,-13.852Z" style="fill:#e6e6e6;"/><path id="Lomas-del-Coapinole" serif:id="Lomas del Coapinole" d="M3427.31,2487.83l14.388,9.996l29.752,18.98l9.205,3.493l13.844,-37.726l22.142,7.166l9.634,6.324c7.2,3.651 14.421,7.134 21.691,10.228l2.842,4.537l-0.083,0.544l-1.197,2.232l0.901,4.827l-0.261,7.743l-0.886,4.824l-30.772,78.355l29.323,27.228l32.4,14.498l-1.191,12.965l5.485,26.958l25.963,1.167l15.284,-5.482l10.814,-8.37l32.583,5.56l-9.388,-19.314l-4.887,-25.492l-4.407,-7.184l-13.082,-52.685l-2.801,-30.891l-1.038,-2.521l-3.338,-29.87l-3.522,-8.807l-6.824,-12.274l-5.302,-13.275l-3.144,-13.745l-16.103,-64.39l-5.901,-19.369l-19.51,-7.49l1.543,-3.109l-24.724,-24.813l-61.198,-22.279c-19.602,53.82 -39.003,107.64 -58.235,161.461Z" style="fill:#e6e6e6;"/><path id="Playa-Grande" serif:id="Playa Grande" d="M3267.05,2689.14l4.45,-5.132l3.745,-3.69l6.6,-10.327l3.152,-6.211l5.618,3.215l5.301,3.417l0.593,1.853l2.692,2.705l2.247,2.515l2.791,4.196l2.373,6.479l1.946,1.994l1.851,2.705l0.618,3.18l1.732,2.73l1.922,2.444l8.627,8.556l4.853,7.25l3.703,3.441l4.639,9.244l0.807,3.37l-14.168,2.017l2.113,6.935l-5.174,2.824l1.234,7.926l-1.495,0.285l-0.285,3.251l0.261,6.147l-2.966,9.03l-5.103,1.211l-2.547,1.558l-9.905,1.55l-2.848,0.285l-5.601,1.253l-4.67,2.165l-5.962,1.784l-0.19,-0.607l3.57,-7.557l0.057,-0.436l-0.586,-29.586l-11.125,0l-2.411,-2.223l-0.285,-2.012l0.931,-1.547l1.272,-3.836l-1.633,-2.848l-1.424,-1.386l-1.652,-1.329l-0.854,-1.367l1.234,-2.477l2.696,-3.807l2.829,-4.443l2.145,-4.319l1.234,-9.987l-2.848,-6.559l-1.537,-0.874l-4.567,-4.955Z" style="fill:#e6e6e6;"/><path id="Jardines-Del-Puerto" serif:id="Jardines Del Puerto" d="M3552.91,1735.52l2.462,11.124c5.364,17.146 11.145,34.362 17.458,51.666l30.453,-26.18l26.938,-21.469c-0.804,-2.997 -1.283,-6.222 -2.293,-9.068c-4.045,-14.787 -8.434,-29.498 -12.926,-44.285c0,0 -4.321,2.286 -10.109,5.797c-10.393,6.304 -26.237,15.902 -32.895,20c-6.446,3.967 -19.088,12.415 -19.088,12.415Z" style="fill:#e6e6e6;"/><path id="Rincon-Del-Puerto" serif:id="Rincon Del Puerto" d="M4087.1,1549.88l22.641,68.065l50.048,-56.119l-72.689,-11.946Z" style="fill:#e6e6e6;"/><path id="Guadalupe-Victoria" serif:id="Guadalupe Victoria" d="M4077.71,1484.87l-8.506,13.366l5.833,18.372l83.99,12.458l1.355,18.279l10.8,-6.171l2.787,4.978l9.303,-5.547l1.592,-1.916l23.024,13.792l21.862,15.415l44.736,-34.241c0,-0 -3.267,-3.549 -7.241,-8.056c-4.029,-4.569 -8.78,-10.128 -12.104,-13.71c-8.154,-8.789 -28.818,-30.724 -44.539,-47.204c-1.648,-1.727 -3.248,-3.728 -4.746,-5.341c-8.697,-9.362 -14.775,-15.725 -14.711,-15.886l-3.859,10.155l-14.193,27.102l-37.314,29.854l-13.146,-8.823l-17.519,-7.019c-9.135,-3.286 -18.27,-6.571 -27.404,-9.857Z" style="fill:#e6e6e6;"/><path id="Heroes-De-La-Patria" serif:id="Heroes De La Patria" d="M3516.92,2495.28l26.534,12.129l0.7,2.683l0.7,2.178l1.828,9.798l-0.623,7.135l-28.485,79.232l-10.541,-5.593l-1,-1.918c-0,0 -5.046,-2.754 -6.54,-3.574c-0.811,-0.444 -1.621,-0.89 -2.427,-1.344c-1.008,-0.568 -2.446,-1.408 -3.618,-2.062c-1.221,-0.833 -3.441,-2.121 -6.253,-3.769c-7.666,-4.494 -19.513,-10.472 -19.513,-10.472l49.238,-84.423Z" style="fill:#e6e6e6;"/><path id="Vista-Hermosa-ll" serif:id="Vista Hermosa ll" d="M3584.8,2692.75l25.539,1.095l0.34,1.283l26.697,36.569l4.955,5.132l0.472,10.382l-0.328,43.332l-77.981,-11.62l-2.949,-9.792l2.418,-24.48l1.298,-3.362l-0.118,-7.432l17.578,-28.373l2.079,-12.734Z" style="fill:#e6e6e6;"/><path id="Ampliacion-Vista-Dorada" serif:id="Ampliacion Vista Dorada" d="M3717.89,2837.13l13.28,41.761l-5.336,-4.279l-6.141,-1.409l-16.208,2.919l-6.695,23.23l-19.906,-2.792l-8.181,-1.486l17.769,-23.557c1.506,-1.305 2.958,-2.671 4.436,-4.018c2.602,-2.37 5.173,-4.582 7.713,-7.269l4.447,-2.961l6.19,-7.672l3.8,-3.216l2.334,-8.436l2.498,-0.815Z" style="fill:#e6e6e6;"/><path id="Copa-Del-Rey" serif:id="Copa Del Rey" d="M3890.15,2153.58l2.618,7.097l9.866,-1.762l4.127,26.225l-3.775,0.604l2.416,11.93l2.716,4.983l9.96,3.089l1.606,0.258l10.486,-4.514l3.935,-2.044l21.57,-9.608l-4.654,-12.21l7.907,-26.997l-12.241,-3.415l2.834,-9.522l-3.298,-3.415l-0.645,1.907l-1.597,-1.598l-4.511,6.263l-13.117,2.625l-36.203,10.104Z" style="fill:#e6e6e6;"/><path id="Las-Mojoneras" serif:id="Las Mojoneras" d="M4215.6,1916.33l45.684,8.421l26.231,7.361l14.172,2.806l-22.812,92.556l39.946,10.292l4.478,-20.57l0.644,-2.158l-2.448,-15.672l0.612,-8.07l0.644,-1.546l1.466,-7.3l1.224,-4.671l0.676,-2.802l1.643,-5.767l1.62,-7.505l9.442,-36.917l13.732,2.129l7.461,-18.161l8.48,0.314l11.041,-51.986l8.928,0.646l28.864,6.75l5.134,-19.786l-27.197,-4.266l-26.049,-3.146l-3.272,0.126l-28.942,-3.452c-0,-0 -10.502,-1.354 -15.769,-1.882c-6.293,-0.63 -14.685,-1.029 -21.991,-1.9c-8.984,-1.072 -31.914,-4.53 -31.914,-4.53l-30.581,-3.764l-3.055,11.796l-7.684,52.027l-10.408,30.627Z" style="fill:#e6e6e6;"/><path id="Gaviotas" d="M2823.04,1963.92l22.682,47.069l4.469,-1.538l69.528,41.999l13.138,12.251l10.684,-23.803l-11.965,-14.665l52.512,-99.488l-93.36,-63.139l-16.345,24.87l3.031,1.834l-13.531,19.204c-3.418,4.368 -6.836,9.004 -10.254,14.327c-10.419,14.583 -20.708,27.529 -30.589,41.079Z" style="fill:#e6e6e6;"/><path id="Los-Mangos" serif:id="Los Mangos" d="M2990.35,1923.97l-11.948,-7.51l14.029,-19.511l-7.741,-5.771l10.991,-15.646c-0,-0 3.872,-5.832 5.843,-8.724c2.393,-3.512 6.646,-9.313 8.515,-12.343c1.053,-1.707 3.397,-4.992 3.397,-4.992l11.742,-17.501l19.989,14.232l-54.817,77.766Z" style="fill:#e6e6e6;"/><path id="Agua-Azul" serif:id="Agua Azul" d="M2449.42,1921.13l9.617,36.714l20.6,-7.014l2.213,37.935l-0.66,3.856l2.485,-0.258l-0.113,7.006l16.692,-4.575l2.038,4.625l13.406,-5.514l4.273,10.763l16.346,-8.006l14.176,35.076l3.875,-7.206l7.917,-9.391l8.409,-0.077l3.657,-1.079l-38.525,-85.427l-28.657,-8.935l-25.84,-7l-31.909,8.507Z" style="fill:#e6e6e6;"/><path id="Lomas-Del-Pedregal" serif:id="Lomas Del Pedregal" d="M2675.77,2049.76l-9.416,6.356l-0.571,41.502l10.732,0.293l-0.565,6.12l-5.217,7.4l-0.678,9.01l-2.69,16.989l-24.853,0.312l-13.526,-22.396l-12.298,-7.364l-12.507,-12.564l-2.121,-13.905l3.447,-10.392l8.718,-11.379l3.16,-14.871l-3.046,-17.928l44.978,-18.63l16.453,41.447Z" style="fill:#e6e6e6;"/><path id="Garza-Blanca" serif:id="Garza Blanca" d="M3204.94,2183.39l15.002,4.121l-3.045,22.33l-0,2.45l-1.268,9.478l-0.302,8.105l-0.903,5.992l-3.041,11.794l-13.389,-9.581c0.535,-4.245 1.055,-8.532 1.393,-13.367l1.289,-14.443l4.264,-26.879Z" style="fill:#e6e6e6;"/><path id="Vida-Vallarta" serif:id="Vida Vallarta" d="M3183.53,2224.74l6.516,1.834l7.077,0.544l1.001,-8.228l1.219,-16.055l3.396,-25.02l13.782,-79.267l0.306,-1.959l0.329,-2.129l2.668,-16.294l1.217,-7.442l2.039,-12.574l2.754,-16.779l2.004,-12.557l0.915,-5.036l3.127,-16.641l4.226,-20.557l-13.578,-2.515l-10.74,65.528l-7.584,45.148l-1.957,12.267l-5.377,34.047l-2.731,17.156l-4.723,29.85l-5.886,36.679Z" style="fill:#e6e6e6;"/><path id="Leonardo-Valle" serif:id="Leonardo Valle" d="M3346.27,2008.31l22.952,-61.966l-3.351,-1.745l-7.182,4.44l-2.649,2.251l-9.018,2.159l-5.215,1.041l-1.043,1.717l-23.577,-7.075l-11.906,-1.5l-3.376,-0.609l-1.817,-0.024l-6.933,3.318l-0.779,3.333l-3.148,0.972l0.635,3.398l1.885,2.363l0.973,3.542l5.583,17.929l4.588,11.716l4.103,-0.014l39.275,14.754Z" style="fill:#e6e6e6;"/><path id="Aralias" d="M3038.9,2131.44l18.113,-80.118l28.322,4.943l21.751,-93.021l-55.041,-11.608l-17.699,-5.497l-40.175,157.911l44.729,27.39Z" style="fill:#e6e6e6;"/><path id="Jardines-de-Vallarta" serif:id="Jardines de Vallarta" d="M2936.09,2021.44l24.521,28.823l4.268,-17.4l28.107,7.063l-8.871,34.275l14.358,3.513l33.004,-132.328l-34.402,-11.673l-11.55,-6.867l-49.435,94.594Z" style="fill:#e6e6e6;"/><path id="Fracc.-Alto-Valle" serif:id="Fracc. Alto Valle" d="M2961.39,2050.88l4.004,-16.506l11.966,3.186l14.219,3.271l-8.523,32.529l-6.75,-3.582c-0,0 -1.082,-1.254 -2.058,-2.687c-1.169,-1.715 -2.452,-3.73 -3.524,-5.088c-2.486,-3.15 -9.334,-11.123 -9.334,-11.123Z" style="fill:#e6e6e6;"/><path id="Campestre-Las-Palmas" serif:id="Campestre Las Palmas" d="M2671.24,2033.06l6.388,17.1l-9.156,6.204l-1.033,37.338l4.39,1.228l25.503,0.732l6.489,-0.282l5.006,0.269l2.321,-0.012l32.529,0.226l1.661,1.571l4.073,5.334l5.846,3.522l0.69,-0.345l-2.221,-5.695l-8.897,-11.52l-2.805,-12.859l-0.313,-20.184l-1.522,-18.323l-43.025,3.076l-2.759,-15.02l-11.389,2.993l-1.273,1.575l-10.503,3.072Z" style="fill:#e6e6e6;"/><path id="Ignacio-L.-Vallarta" serif:id="Ignacio L. Vallarta" d="M2694.96,2023.18l-1.518,-6.672l-2.117,-24.461l-3.669,-29.392l-10.688,-4.215l-5.235,21.225l0.471,2.36l2.253,7.311l1.55,0.316l1.871,4.421l0.632,6.239l-2.456,5.806l0.906,2.4l1.229,6.11l3.323,12.125l13.448,-3.573Z" style="fill:#e6e6e6;"/><path id="_1-De-Mayo" serif:id="1 De Mayo" d="M2703.1,2018.24l1.028,12.082l-1.867,7.375l19.358,-0.421l21.865,-4.085l2.31,39.506l2.463,16.009l15.628,17.501l13.828,20.851l5.903,3.236l48.862,-92.783l-21.703,-10.438l7.15,-14.056l-22.23,-12.038l7.163,-18.988l-35.858,10.68l0.98,4.057l-41.49,13.893l-23.39,7.619Z" style="fill:#e6e6e6;"/><path id="Ni単os-Heroes" serif:id="Ni単os Heroes" d="M2819.23,1962.76l-11.894,17.85l-8.251,18.934l23.659,12.331l-7.255,14.152l20.569,10.803l-6.957,13.186l2.796,1.614l9.032,-5.787l7.49,12.063l32.468,-27.359l-30.824,-19.851l-6.511,2.762l-24.322,-50.698Z" style="fill:#e6e6e6;"/><path id="Fracc.-Delfines" serif:id="Fracc. Delfines" d="M2827.47,2052.79l-7.387,15.137l0.083,7.332l6.419,18.886l17.997,6.614l3.219,7.08l-3.375,22.771l5.474,7.753l48.707,-40.277l9.789,13.875l9.596,-7.515l23.503,-20.945l0.857,-9.651l-10.338,-6.704l-12.591,-13.541l-35.817,-21.744l-35.406,28.7l-7.613,-12.809l-10.448,6.192l-2.669,-1.154Z" style="fill:#e6e6e6;"/><path id="Primavera" d="M2777.75,2131.05l5.53,4.092l32.918,-63.15l1.312,0.401l7.519,24.57l8.675,2.768l11.583,6.389l-1.877,26.073l6.058,8.552l48.838,-40.897l9.852,13.901l8.578,-6.835l1.087,1.633l10.379,31.133l-9.187,3.367l0.032,12.289l19.855,11.729l-8.209,20.406l-11.651,34.989l-0.822,30.431l-123.001,-33.355l-11.621,-22.644l-5.848,-65.842Z" style="fill:#e6e6e6;"/><path id="Las-Torres" serif:id="Las Torres" d="M2919.8,2106.66l13.56,32.965l-11.143,4.313l-0.303,8.655l14.067,10.288l4.086,1.557l2.679,-5.793l6.619,3.49l2.731,3.691l2.429,-2.197l13.177,-1.027l3.129,1.829l9.046,-27.973l-21.998,-15.754l-7.351,-8.019l2.995,-23.79l-8.683,-3.845l-15.301,11.877l-9.739,9.733Z" style="fill:#e6e6e6;"/><path id="La-Moderna" serif:id="La Moderna" d="M2919.9,2235.98l4.382,-8.66l1.732,0.039l12.572,9.711l12.364,10.372l15.327,8.129l-2.985,5.449l8.229,7.227l24.978,24.891l8.727,-2.422l4.328,-1.488l3.228,2.679l4.396,4.304l1.878,1.992l5.357,1.202l3.309,-0.938l10.12,-1.512l-2.564,11.174l-3.32,21.259l27.534,30.919l8.462,5.907l-16.438,36.659l0.984,5.861l-2.152,11.735l-12.043,0.045l-4.58,-0.847l-13.122,0.017l-14.282,-0.887l-15.126,-1.946l-37.61,-31.801l-27.098,-20.041l-0.875,-6.365l-1.668,-19.202l-3.017,-5.678l3.095,-8.491l2.22,-6.962l3.044,-12.778l-2.424,-6.793l0.663,-2.715l4.904,-10.865l-1.16,-4.358l-4.465,-4.557l-2.193,-10.914l-1.85,-0.531l-1.423,-3.999l0.531,-2.612l-0.278,-2.697l-1.691,-19.512Z" style="fill:#e6e6e6;"/><path id="Educacion" d="M3548.46,1455.74l3.704,7.901l5.004,22.087l15.056,50.691l3.707,3.989l3.82,19.436l-0.79,0.198l3.457,15.125l7.29,25.646l14.291,-1.53l29.931,-9.568l7.649,16.553l11.527,-4.081l-7.63,-15.493l30.628,-8.803l-14.468,-29.231l-10.313,-30.265l17.535,-5.457l-4.423,-12.122l-16.34,5.857l-9.831,-36.409l-4.469,-2.084l-4.031,1.243l-44.079,-45.907l-31.663,27.077l-5.562,5.147Z" style="fill:#e6e6e6;"/><path id="Villas-Sol" serif:id="Villas Sol" d="M3606.96,1639.23l-3.352,-32.318l-1.24,-6.286l-79.508,10.13l-2.412,-1.476l-0.692,1.585l5.937,2.131l12.044,13.558l4.884,3.423l20.417,18.288l43.922,-9.035Z" style="fill:#e6e6e6;"/><path id="Villas-del-Puerto" serif:id="Villas del Puerto" d="M3544.54,1634.03l20.68,17.955l43.664,-10.382l5.659,52.734l-61.996,38.634l-3.662,-12.131l-8.809,-45.416l4.464,-41.394Z" style="fill:#e6e6e6;"/><path id="Los-Portales" serif:id="Los Portales" d="M3621.78,1697.1l23.989,87.06l-4.62,-0.592l14.614,43.107l37.588,-11.658l-10.431,-33.004l-25.284,-89.469l-35.856,4.556Z" style="fill:#e6e6e6;"/><path id="Fracc.-La-Floresta" serif:id="Fracc. La Floresta" d="M3696.2,1971.71l40.961,-34.2l47.842,72.323l-2.349,1.708l-43.509,23.437l-1.576,-2.352l-41.369,-60.916Z" style="fill:#e6e6e6;"/><path id="Hipodromo" d="M3761.32,2089.92l42.909,16.229l35.34,13.015l0.922,3.213l-10.701,28.497l3.102,1.15l10.182,4.515l4.659,1.604l5.7,0.297l2.913,-2.698l-1.109,-13.475l-1.094,-5.954l-2.759,-12.966l-2.073,-12.795l0.027,-2.739l1.505,-5.023l-0.46,-1.971l-0.712,-0.881l-0.661,-2.254l-0.227,-10.907l0.563,-12.181l0.066,-3.277l0.596,-8.837l2.5,-0.31l-1.604,-1.841l-15.921,-45.812l-4.65,-4.303l-12.181,-12.247l-2.11,-1.179l-1.519,-0.299l-1.911,0l-4.054,0.029l-0.147,-0.375l-1.278,1.063l0.288,0.725l-3.428,1.54l11.79,20.903l-21.603,12.16l-6.625,-11.695l-3.806,9.07l11.952,4.506l-2.718,6.601l11.367,3.995l-8.755,23.504l-22.65,-8.841l-11.625,30.244Z" style="fill:#e6e6e6;"/><path id="San-Miguel" serif:id="San Miguel" d="M3634.37,2522.5l1.152,0.354l8.942,14.395l11.041,16.524l7.859,10.386l9.732,6.466l17.039,9.154l12.485,5.206l-8.485,18.362l-4.645,19.961l1.933,1.669l1.35,13.226l-1.165,5.402l-2.409,5.296l-1.43,1.563l-1.351,4.011l0,1.801l0.901,1.165l-1.695,5.786l-19.887,7.324l-2.94,-5.985l-1.906,-5.349l-2.701,-8.791l1.372,-11.232l-5.557,-8.204l-11.652,-48.776l-7.109,-45.34l-0.874,-14.374Z" style="fill:#e6e6e6;"/><path id="Vista-Dorada" serif:id="Vista Dorada" d="M3670.88,2683.35l0.511,-0.174l16.612,31.991l2.324,9.433l5.725,10.589l3.632,0.397l3.647,4.213l1.478,2.861l4.821,18.644l2.736,18.618l1.519,6.472l2.748,12.617l1.252,13.219l-2.169,12.466l-0.752,3.008l-17.527,-4.078l-18.627,-4.251l4.223,-4.165l3.847,-3.008l-11.563,-6.968l-10.783,-6.849l0.765,-14.762l5.581,-100.273Z" style="fill:#e6e6e6;"/><path id="Campo-Verde" serif:id="Campo Verde" d="M4337.96,2090.32l11.872,48.237l0.44,5.279l0.397,1.698l22.949,4.547l6.782,0.948l58.47,11.55l0.628,-3.545l0.31,-4.488l7.281,-41.246l-5.687,-1.802l-12.762,-2.644l-7.132,-2.114l-9.738,-2.609l-2.775,-0.097l-7.066,-1.805l-3.319,0.019l0.86,-2.991l2.752,-15.428l-7.141,-2.087l-28.448,-11.626l3.787,23.408l-5.88,4.33l-2.426,4.021l-1.961,1.86l-22.193,-13.415Z" style="fill:#e6e6e6;"/><path id="Parques-Universidad" serif:id="Parques Universidad" d="M4075.97,1918.72l20.944,-0.337l-0.656,-31.69l21.246,-8.662l8.189,75.742l38.682,3.66l-0.598,28.9l-19.094,-7.28l-0.196,5.515l-1.029,41.344l0.334,3.033l-1.176,38.83l-4.572,9.271l-12.586,25.646l-7.278,20.111l-50.532,16.611l-5.852,-31.188l-8.632,-38.598l-7.16,-47.928l28.512,0.259l1.454,-103.239Z" style="fill:#e6e6e6;"/><path id="Villas-Primavera--2-2-" serif:id="Villas Primavera (2/2)" d="M3448.38,1651.23l66.594,-0.307l-0.005,-10.971l-10.781,-0.87l-11.235,-0.642l-23.597,-1.569l-18.029,-1.533l-3.83,0.01l0.427,6.883l0.456,8.999Z" style="fill:#e6e6e6;"/><path id="Villas-Primavera--1-2-" serif:id="Villas Primavera (1/2)" d="M3448.07,1633.72l67.197,4.891l-0.29,-14.945l-4.717,-0.305l-16.617,0.311l-22.406,-0.923l-19.691,-4.587l-4.403,0.013l0.927,15.545Z" style="fill:#e6e6e6;"/><path id="Villas-del-Mar" serif:id="Villas del Mar" d="M3604.85,1600.56l26.068,-8.686l2.708,4.659l44.732,87.319l-59.429,8.533l-7.306,-52.736l-6.773,-39.089Z" style="fill:#e6e6e6;"/><path id="Campestre-San-Nicolas" serif:id="Campestre San Nicolas" d="M4076.09,2557.53l10.151,-13.545l17.023,-18.617l4.007,-3.185l2.929,-2.055l4.231,-2.362l5.948,-2.875l23.145,21.705l-13.334,6.325l-52.169,52.29l1.763,1.641l-19.45,24.911l-2.945,-1.167l-2.701,-1.482l-4.844,-5.176l-4.291,-6.734l-1.549,-3.095l-5.204,-15.256l-1.541,-12.265l-0.28,-5.898l-0.306,-7.457l27.083,-20.528l12.334,14.825Z" style="fill:#e6e6e6;"/><path id="Las-Pe単ashh" serif:id="Las Pe単ashh" d="M2140.93,1839.57l21.22,12.815l8.832,9.697l10.081,19.335l0.645,5.846l-23.15,17.754l-22.111,8.649l-15.79,-7.592l-0.481,-5.787l-1.271,-34.239l22.025,-26.478Z" style="fill:#e6e6e6;"/><path id="Canoas" d="M2052.09,1818.39l16.117,-3.331l9,0.594l20.783,-2.121l6.508,-2.469l14.655,1.784l1.064,-8.247l-19.812,-11.902l-13.447,-3.356l-7.12,-2.742l-13.451,-1.56l-8.584,3.141l-7.134,6.896l-1.72,11.538l3.141,11.775Z" style="fill:#e6e6e6;"/><path id="El-Caloso" serif:id="El Caloso" d="M2110.45,1797.39l-0.476,-6.319l21.515,-21.224l6.712,-12.405l5.982,-11.047l1.03,-1.145l10.303,8.32l5.552,-0.887l11.934,-0.257l1.388,-3.234l14.31,3.792l11.047,3.348l-4.429,35.352l5.489,23.54l3.551,20.84l11.921,6.17l4.483,10.177l7.942,-6.762l27.572,29.06l-7.183,11.82l-2.834,3.262l-12.366,3.38l-3.7,4.487l-3.608,6.539l-2.546,1.649l-21.098,-10.239l-11.269,-10.028l-4.435,-8.342l-4.978,-10.916l-16.39,-20.147l-20.691,-16.025l-24.919,-16.761l1.122,-12.517l-10.931,-3.481Z" style="fill:#e6e6e6;"/><path id="Altavista" d="M1942.36,1725.11l17.399,12.113l-3.467,23.314l5.937,-2.507l3.766,-3.751l6.374,-8.389l9.275,-7.341l2.44,-0.498l6.162,3.56l8.25,1.803l1.524,1.758l3.868,1.656l3.006,2.331l15.005,-7.106l2.703,0.19l9.815,-5.664l2.601,2.251l8.969,5.536l4.835,-0.27l0.317,-3.552l-16.563,-72.275l-14.771,2.166l-5.583,-25.93l-22.969,-19.397l-1.481,2.462l-0.065,7.576l-1.974,4.731l-3.984,3.129l-3.628,4.873l-6.446,1.049l3.752,5.166l4.749,5.293l6.881,1.177l2.254,14.114l-12.435,3.799l-1.422,9.241l-2.401,2.489l-5.224,3.468l0.553,7.234l-2.475,4.718l0.055,1.729l-1.566,7.77l-5.675,5.051l-6.726,2.13l-4.706,3.103l-6.929,-0.3Z" style="fill:#e6e6e6;"/><path id="Benito-Juarez" serif:id="Benito Juarez" d="M1941.21,1853.57l11.682,7.725l1.515,9.503l29.962,4.208l16.04,3.393l34.065,3.465l16.092,-2.206l0.592,-2.613l-1.513,-35.018l-5.458,-10.572l-14.073,2.769l-9.836,0.89l-10.67,0.056l-8.616,-4.612l-6.411,-8.258l-5.028,-11.393l2.099,-13.907l8.787,-17.824l12.931,-20.766l7.24,-7.089l5.914,-2.357l8.58,-1.489l8.67,1.889l11.195,5.019l1.995,-2.896l-22.553,-13.096l-9.041,5.111l-3.585,-0.273l-15.328,7.138l-3.034,-2.966l-3.978,-1.698l-1.519,-1.665l-8.019,-1.725l-6.074,-3.607l-1.944,1.041l-9.656,8.536l-2.53,3.912l-2.187,2.97l-2.348,2.383l-2.575,1.8l-2.467,1.293l-4.711,1.897l-14.205,91.032Z" style="fill:#e6e6e6;"/><path id="Remance" d="M2036.1,1823.17l-1.906,-6.695l-1.218,-10.735l1.275,-10.195l3.734,-7.84l10.223,-10.483l11.407,-4.603l6.833,-1.223l7.954,0.604l8.284,1.433l-8.448,-7.527l-2.628,-7.276l-1.113,0.405l-2.128,2.39l-4.758,1.469l-7.195,-0.552l-2.617,-1.453l-13.938,-6.177l-4.821,0.003l-5.794,1.18l-7.451,5.193l-21.987,38.647l-2.968,9.717l3.945,13.229l9.621,5.299l2.205,0.552l14.422,-1.245l9.067,-4.117Z" style="fill:#e6e6e6;"/><path id="Buenos-Aires" serif:id="Buenos Aires" d="M1900.36,1892.22l2.788,20.938l21.513,-2.694l11.793,-5.692l23.375,30.687l22.29,15.64l18.562,10.253l20.858,2.78l14.031,-2.419l19.528,-15.083l9.643,-20.676l-1.655,-39.173l-15.204,-0.622l-60.775,6.799l-31.732,-6.479l-30.314,-0.655l-24.701,6.396Z" style="fill:#e6e6e6;"/><path id="Bugambilias" d="M2598.84,2095.85l-34.556,11.947l0.486,8.255l7.37,41.201l44.536,79.529l26.262,16.531l6.183,-2.069l-24.827,-75.181l5.229,-14.46l-3.682,-24.569l0.748,-16.582l-4.501,-2.374l-12.839,-10.344l-10.409,-11.884Z" style="fill:#e6e6e6;"/><path id="Ramblases-Ecologico" serif:id="Ramblases Ecologico" d="M2633.85,2301.28l21.47,-0.499l-0.36,-11.306l3.68,-0.114l0.967,-20.214l3.286,-11.858l-8.685,-0.144l-2.972,-1.551l-22.186,-0.031l-6.874,-6.444l-7.259,-3.958l-14.612,0.139l33.545,55.98Z" style="fill:#e6e6e6;"/><path id="Ramblases" d="M2654.27,2255.45l9.797,-0.097l-2.506,14.145l0.469,47.735l38.81,-0.605l-2.414,20.601l60.525,20.519l25.967,-50.405l-4.591,-2.292l-2.557,-15.043l1.263,-16.012l16.807,-20.384l4.952,3.159l6.042,-9.124l-14.802,-27.262l-12.547,-20.919l-6.42,-72.804l-13.832,-21.929l-1.899,4.766l-10.754,-5.531l-9.959,-5.971l-12.352,-0.024l-0.334,17.411l3.044,1.055l-27.643,82.76l-3.503,20.108l-40.236,11.715l-1.327,24.428Z" style="fill:#e6e6e6;"/><path id="Del-Mar" serif:id="Del Mar" d="M2796.08,2222.76l122.011,31.325l7.292,31.117l-2.451,11.024l2.043,12.284l-1.148,5.74l-3.701,11.018l-10.11,-5.973l-18.417,-3.568l-9.457,-2.125l-19.601,-16.589l-7.375,-10.554l-23.727,-13.781l-25.706,-30.919l-9.653,-18.999Z" style="fill:#e6e6e6;"/><path id="Presidentes-Municipales" serif:id="Presidentes Municipales" d="M2967.34,2260.87l2.433,-4.158l5.966,-4.352l1.262,-0.518l2.881,-2.747l5.033,-1.868l1.635,-3.069l10.487,-21.525l7.493,9.524l24.67,39.893l4.477,8.181l2.883,8.343l2.925,4.821l-1.634,2.002l-14.305,1.923l-1.291,-1.738l-3.53,-1.318l-7.482,-7.482l-7.509,1.976l-5.401,0.843l-24.674,-22.352l-6.319,-6.379Z" style="fill:#e6e6e6;"/><path id="Real-del-Marlin" serif:id="Real del Marlin" d="M2933.77,2064.2l5.376,-11.969l0.626,-1.251l0.263,-1.087l4.248,-9.32l5.961,6.027l4.94,5.894l7.146,9.155l5.434,6.669l3.754,4.973l3.853,5.137l5.623,1.647l-2.044,14.216l-4.953,-3.372l-17.894,-11.655l0.307,-2.664l-2.939,-1.556l-8.683,-5.464l-11.018,-5.38Z" style="fill:#e6e6e6;"/><path id="Santa-Maria--Parte-Baja-" serif:id="Santa Maria (Parte Baja)" d="M2832.2,2409.45l155.859,7.357l-38.086,-30.461l-25.742,-20.985l-1.777,-25.697l-37.639,8.864l-7.542,9.32l-1.712,10.505l-16.818,-0.127l-13.441,-1.293l-7.707,4.221l-6.515,7.696l2.468,0.31l-1.348,30.29Z" style="fill:#e6e6e6;"/><path id="Santa-Maria--Parte-Alta-" serif:id="Santa Maria (Parte Alta)" d="M2796.54,2382.24l6.842,-0.324l2.816,0.637l1.97,-0.087l14.827,-1.243l9.036,0.316l-1.837,33.397l101.245,6.435l0.118,5.699l-16.336,24.871l-21.933,-12.341l-3.189,23.829l-8.853,-4.776l0.675,-7.715l-6.063,0.96l-1.105,3.364l-0.377,2.136l-3.666,8.714l-3.331,0.007l-0.218,6.354l-10.059,-0.27l0.27,-4.081l-26.962,-1.101l2.437,-41.43l-27.037,-1.405l1.481,-16.61l-12.907,-0.54l2.156,-24.796Z" style="fill:#e6e6e6;"/><path id="Cristobal-Colon--2-2-" serif:id="Cristobal Colon (2/2)" d="M3063.23,2516.67l14.145,-28.321l-7.309,-20.006l24.695,18.296l48.255,25.319l-4.023,13.301l-6.952,12.049l-21.028,22.072l-3.956,1.227l-16.844,-9.453l-21.229,-24.922l-5.754,-9.562Z" style="fill:#e6e6e6;"/><path id="Cristobal-Colon--1-2-" serif:id="Cristobal Colon (1/2)" d="M3050.37,2428.22l5.839,31.069l14.236,5.284l18.57,14.3l53.205,29.387l-0.642,-24.397l-1.436,-23.63l-13.332,-42.581l-5.632,-11.176c-3.798,-4.954 -7.54,-9.909 -11.137,-14.864l-8.127,-5.123c-0,-0 -5.205,-2.72 -7.875,-3.925c-2.67,-1.204 -8.147,-3.302 -8.147,-3.302l-17.106,-8.966l-14.452,32.974l1.003,6.547l-4.967,18.403Z" style="fill:#e6e6e6;"/><path id="Rancho-La-Primavera" serif:id="Rancho La Primavera" d="M3095.02,2586.53l33.229,2.114l20.791,4.264l8.814,-9.739l6.503,-2.527l4.456,-4.932l-1.392,-1.468l-6.133,-4.152l-1.554,-4.664l-0.874,-12.906l0.015,-6.352l-3.923,-4.111l-4.23,-3.313l-5.234,-11.244l-3.796,4.262l-10.13,19.021l-13.651,10.773l-12.933,15.803l-9.958,9.171Z" style="fill:#e6e6e6;"/><path id="Linda-Vista-Oceano" serif:id="Linda Vista Oceano" d="M2845.49,2521.77l36.572,18.341l2.374,-3.804l38.628,16.562l34.807,-93.419l6.173,2.245l25.933,53.929l34.276,-55.191l29.041,-0.888l-5.436,-29.733l-112.89,-8.245l0.175,3.852l-18.6,31.339l-20.916,-11.291l-3.847,23.613l-33.227,46.913l-8.223,-1.558l-4.84,7.335Z" style="fill:#e6e6e6;"/><path id="Paso-Ancho" serif:id="Paso Ancho" d="M1810.27,1987.65l13.635,0.023l9.539,-4.62l10.202,-1.187l1.37,2.062l1.108,2.373l7.593,-3.678l8.327,-4.424l1.583,-2.32l1.097,-2.824l1.06,-3.498l0.938,-1.848l0.265,-1.853l-1.278,-0.081l0.718,-2.779l0.63,-2.675l0.562,-4.046l-2.774,-15.642l0.31,-1.593l-2.082,-10.362l-0.633,-9.296l-5.525,-0.058l-2.97,8.898l1.151,-0l0.317,7.824l-0.345,2.106l-11.536,-2.774l-7.155,6.273l-5.015,15.52l-16.013,-1.5l-2.938,2.095l-0.462,7.934l2.57,0.585l-4.249,21.365Z" style="fill:#e6e6e6;"/><path id="La-Herradura" serif:id="La Herradura" d="M2477.18,2007.99l7.772,6.605l5.562,1.572l3.806,-0.921l1.228,8.901l8.032,21.399l3.184,0.646l2.157,-4.906l7.833,-0.555l0.026,-13.328l10.537,-2.295l-0.943,-0.616l-12.402,-29.129l-13.488,6.403l-1.755,-4.617l-14.401,3.336l-1.768,0.708l-5.38,6.797Z" style="fill:#e6e6e6;"/><path id="Vista-Vanderas" serif:id="Vista Vanderas" d="M1474.86,1433.58l112.969,70.109l1.726,-2.659l2.921,-0.962l12.539,-20.321l-2.915,0.033l-3.622,3.929l-8.014,4.288l-4.558,-8.61l1.66,-6.666l8.602,-5.556l3.166,-0.112l-0.347,-13.179l1.891,-3.154l-2.792,-18.954l1.238,-4.189l-7.019,-0.344l-0.021,-4.71l-6.901,0.052l-0,-6.579l2.662,-3.447l4.861,-4.804l8.721,-0.06l-0.07,-7.066l2.978,-7.652l-2.21,-1.572l-17.155,17.08l-11.413,1.865l-6.123,0.327l-18.818,0.429l-29.792,-5.412l-13.988,5.962l-4.673,1.105l-8.285,4.214l-17.218,16.615Z" style="fill:#e6e6e6;"/><path id="Gastronomicos" d="M2362.35,1895.6l4.928,-11.383l1.364,-1.719l6.385,-3.219l1.337,2.892l9.194,0l0.396,18.089l-1.91,0.409l-9.031,-0.082l-12.663,-4.987Z" style="fill:#e6e6e6;"/><path id="Bosques-del-Progreso" serif:id="Bosques del Progreso" d="M3988.74,2248.87l0.85,4.644l38.698,76.691l4.366,1.237l9.58,-3.512l4.676,1.929l6.929,-1.513l18.6,-7.449l5.67,8.986l2.76,-1.542l6.192,-7.859l-6.306,-12.143c-0,-0 -6.649,-14.065 -10.161,-21.004c-3.702,-7.313 -9.684,-17.482 -12.048,-22.874c-1.68,-3.831 -3.683,-7.428 -5.653,-11.073c-2.46,-4.55 -7.102,-12.588 -9.104,-16.225c-1.014,-1.842 -2.907,-5.597 -2.907,-5.597l-7.672,-14.771c0,-0 -4.073,1.368 -5.513,2.239c-1.846,1.118 -6.203,3.274 -6.203,3.274l-18.277,14.239l-10.291,5.138l-4.186,7.185Z" style="fill:#e6e6e6;"/><path id="Fracc.-Real-Ixtapa" serif:id="Fracc. Real Ixtapa" d="M5026.93,1884.78l5.484,13.413l8.435,13.752l7.399,13.227l0.982,4.922l3.817,6.108l8.895,8.802c0,-0 2.805,3.561 4.508,5.845c0.389,0.522 0.698,1.26 0.929,1.552c0.225,0.286 0.582,0.449 0.922,0.791c0.551,0.554 1.078,1.25 1.078,1.25l11.875,18.087l10.454,-8.296l100.095,-91.536l-0.855,-2.672l-42.758,-45.701l-22.366,20.562l-24.503,-49.528l24.84,-24.026l-19.715,-21.701l-7.984,-6.554l8.021,-15.741l-4.206,-4.057l-11.479,-11.141l-19.732,30.288l-35.124,-26.632l-2.224,2.232l-1.049,4.735l-4.908,4.576l-2.543,6.084l-4.439,9.259l26.19,25.053l12.624,7.962l14.379,2.44l-0.577,3.945l-31.333,27.35l21.604,23.645l-9.345,25.658l-27.391,26.047Z" style="fill:#e6e6e6;"/><path id="Vista-Vallarta" serif:id="Vista Vallarta" d="M4207.62,2386.73l13.829,-3.258l2.573,1.719l1.434,10.894l4.508,11.352l11.742,-8.298l5.396,-8.749l8.346,-20.006l-0.04,-2.92l9.637,3.995l6.869,-2.43l7.286,1.297l2.981,-1.282l1.619,-0.276l2.676,2.067l6.335,0.551l4.589,-2.964l13.238,7.054l18.252,11.86l9.191,15.915l1.217,24.196l-6.507,12.998l6.181,20.2l0.313,21.958l3.436,3.049l6.98,16.998l1.888,11.117l22.3,87.843l18.841,19.337l10.36,20.496l-0.953,38.679l4.185,18.672l-2.724,55.198l-4.144,1.319l5.995,1.481l2.818,1.831l1.429,3.327l0.33,22.587l-2.32,5.174l-10.001,12.539l-34.471,44.792l1.7,19.605l2.532,6.171l1.104,26.258l-2.504,11.683l-1.525,19.946l-3.898,8.376l-12.628,6.201l-130.633,37.918l-26.705,-95.142l1.876,1.04l29.075,-7.258l-1.201,-3.351l-23.108,-31.76l23.508,-3.316l-0.74,-3.526l-15.201,-42.189l-3.391,-6.046l-33.128,19.1l-9.711,-15.996l-6.866,-23.983l-1.334,-2.781l27.011,-16.241l0.225,-3.322l8.895,-25.039l10.504,-9.415l1.843,-28.755l-6.937,-5.527l-1.808,-6.517l1.243,-23.923l-35.679,-15.959l-1.651,-1.219l17.251,-46.926l3.238,-29.226l13.421,-46.298l8.771,-15.276l14.363,-12.979l9.713,-12.45l6.858,-3.444l3.414,-4.533l8.83,-1.295l-32.341,-72.918Z" style="fill:#e6e6e6;"/><path id="Volcanes--1-2-" serif:id="Volcanes (1/2)" d="M3908.79,2889.6l2.709,61.062l52.276,-3.091l0.653,20.618l8.698,-0.572l3.371,1.584l7.41,0.147l2.928,0.674l7.859,0.295l3.371,-0.674l11.008,0.927l11.082,-0.274l7.311,0.021l4.87,-13.155l2.963,-13.974l3.434,-5.616l1.281,-3.802l12.947,-17.95l2.871,-4.714l1.159,-2.291l3.897,-6.413l-53.329,-18.479l4.372,-19.803l-5.711,0.361l-2.012,-31.477l12.371,-0.539l3.086,0.073l1.865,-0.325l6.809,-15.882l-0.284,-7.848l-51.503,2.715l-5.926,14.218l-3.251,7.448l-2.88,7.736l-5.127,12.854l-2.65,1.672l-2.881,4.074l-9.514,0.845l-0.211,1.606l-12.588,1.343l-1.765,5.294l-9.593,0.93l-2.242,7.703l-4.261,7.395l-1.307,5.077l-3.566,0.207Z" style="fill:#e6e6e6;"/><path id="Volcanes--2-2-" serif:id="Volcanes (2/2)" d="M3924.67,3001.64l4.386,3.2l7.498,8.45l1.312,-1.258l1.449,-0.809l5.699,7.314l-3.533,8.544l2.877,4.084l7.462,1.798l-0.317,-6.804l1.381,-5.206l13.524,-0.968l3.398,0.378l13.906,2.984l2.733,0l1.223,0.522l7.29,-0.036l7.598,-0.5l7.697,-1.46l10.085,-6.504l8.167,-42.648l-21.918,-1.105l-11.518,-0.028l-11.405,-1.208c-2.301,-0.309 -4.459,-0.258 -6.573,-0.098l-4.467,-0.562l-10.253,0.449l-5.165,2.647c-1.723,0.04 -3.416,0.315 -5.091,0.738c-0.429,0.609 -0.587,1.217 -0.632,1.826l-2.458,2.072l-1.51,2.739c-0,-0 -0.85,-0.079 -1.268,-0.162c-0.514,-0.101 -1.197,-0.361 -1.813,-0.45c-0.656,-0.094 -1.532,-0.078 -2.125,-0.117c-0.477,-0.031 -1.431,-0.114 -1.431,-0.114l-5.531,5.34l-9.099,0.577l3.648,10.314l-5.226,6.061Z" style="fill:#e6e6e6;"/><path id="Jardines" d="M2759.86,2358.06l32.849,14.431l16.536,3.983l4.636,-0.615l8.002,-2.394l4.087,-0.597l17.507,-11.237l7.578,-0.955l12.206,2.361l10.878,-7.974l8.744,-14.529l11.375,-0.57l19.301,-3.273l3.893,-6.024l-0.331,-3.821l-8.11,-5.024l-24.104,-4.035l-8.298,-4.755l-17.515,-13.923l-6.663,-10.404l-25.288,-14.786l-19.844,-25.43l-6.568,11.001l-4.717,-2.923l-7.631,9.769l-6.312,7.93l-2.472,17.592l3.276,13.071l4.594,2.437l-27.609,50.694Z" style="fill:#e6e6e6;"/><path id="Villas-Rio" serif:id="Villas Rio" d="M3347.16,1864.3l11.97,-0.864l18.844,4.866l6.999,10.66l1.824,10.922l-24.163,33.339l-22.823,-1.824l-5.458,-0.474l0.569,-2.357l12.238,-54.268Z" style="fill:#e6e6e6;"/><path id="Infonavit" d="M3145.22,2090.25l53.24,13.475l-18.691,121.542l-48.974,-33.053l14.425,-101.964Z" style="fill:#e6e6e6;"/><path id="Foviste-100" serif:id="Foviste 100" d="M3234.97,1873.08l12.994,-0.921l-23.08,107.81l-11.927,-2.521l22.013,-104.368Z" style="fill:#e6e6e6;"/><path id="Vallarta-Villas" serif:id="Vallarta Villas" d="M3225.97,1979.32l10.766,2.173l24.626,-109.949l-11.896,0.655l-23.496,107.121Z" style="fill:#e6e6e6;"/></g><g id="None"><path id="None1" serif:id="None" d="M1688.06,1510.36l4.732,2.184l2.366,0.061l3.337,-0.303l2.283,-1.3l2.382,-4.589l1.657,-2.249l1.635,-1.191l1.887,-0.555l2.359,0.639l1.545,1.575l4.472,-9.855l5.359,-5.602l-6.584,-5.145l2.736,-2.222l4.797,-10.959l-6.872,-5.785l-3.067,-0.582l-9.354,1.338l0.941,6.249l-3.972,6.856l1.281,0.776l-13.92,30.659Z" style="fill:#8fb685;"/><path id="None2" serif:id="None" d="M3573.78,1800.9l26.421,63.15l-7.104,3.205l-21.617,3.001l-4.35,6.411l26.162,29.212l2.767,2.527l20.635,25.586l4.636,-3.721l13.508,-16.912l20.324,-35.846l21.634,-26.805l21.315,-20.173l-4.249,-14.31l-39.061,12.262l-16.141,-47.724l3.996,0.607l-9.256,-30.593c-19.873,15.654 -39.747,32.233 -59.62,50.123Z" style="fill:#8fb685;"/><path id="None3" serif:id="None" d="M3139.44,1446.72l36.856,26.982l44.595,58.457l38.364,-22.655l21.518,35.474l6.836,-3.588l-7.978,-16.911l23.93,-14.177l6.806,11.293l43.529,7.846l0.018,-2.667l2.604,0.009l20.204,8.567l0.901,0.006l6.772,-40.625l9.961,1.887l4.442,0.57l4.094,-24.033l3.517,0.854l-4.064,23.881l8.967,1.528l-8.085,47.11l0.786,0.333l10.511,-57.349l22.874,3.467l0.282,68.084l46.072,-6.347l-3.363,-14.969l86.631,-11.037l-19.658,-72.569l-6.356,-8.83l3.122,-1.84l55.245,-49.752l-8.889,-8.95l-20.237,-13.604l-41.748,32.829l-29.642,36.122l-11.293,10l-38.13,4.917l-39.464,-6.683l1.244,-6.554l1.439,0.234l2.714,-17.673l-3.416,-0.341l2.176,-11.947l2.804,0.324l4.189,-22.815l-2.678,-0.432l2.067,-12.8l-20.914,-25.063l-3.233,2.651l-23.754,7.095l-4.776,4.502l-23.772,3.763l-60.2,18.799l4.612,7.268l-35.323,7.753l-34.97,25.568l-21.491,8.014l-2.81,-6.394l-34.086,8.289l-20.352,6.129Z" style="fill:#8fb685;"/><path id="El-salado" serif:id="El salado" d="M3586.33,1422.96l43.546,45.672l3.947,-1.212l5.193,2.282l9.396,36.371l76.217,-28.948l14.356,36.085l-6.879,2.709l0.958,2.325l-70.572,30.282l14.486,29.215l44.942,-14.831l14.484,122.242l-8.937,0.019l0.886,12.383l2.208,2.668l1.069,2.565l22.682,0.115l1.135,8.937l-3.761,3.417l-16.775,3.653l2.313,5.207l4.425,-0.061l-1.576,9.68l-4.11,19.131l-0.288,5.891l1.938,13.592l1.325,1.915l4.893,-4.5l5.433,-1.506l1.342,4.598l-0.949,5.843l-2.259,3.42l19.237,0.87l-0.922,12.187l4.189,-0.213l19.198,-7.482l16.748,-4.954l8.742,-3.707l15.182,-5.37l8.381,-3.282l2.925,-0.307l16.695,-0.286l34.791,-3.338l13.174,-3.713l6.642,-4.293l9.527,-1.526l30.726,-9.814l1.892,-0.332l60.405,-20.179l36.595,-12.076l22.823,-7.441l2.447,-0.2l1.548,-0.949l12.693,-4.762l5.034,-1.279l7.431,-2.717l2.837,-0.879l24.16,-7.87l-4.365,-12.809l-4.379,-13.169l-2.269,-6.264l-12.784,-38.514l-1.087,-2.621l-2.11,-6.456l-8.469,-24.722l-27.62,-82.148l-16.321,4.747l-8.989,2.078l-7.151,2.037l-3.536,0.32l-7.551,-0.799l-6.192,-0.08l-13.063,-45.057l10.608,-2.739l2.979,-0.563l3.048,-1.186l9.962,-2.68l-10.351,-30.71l19.851,-6.278l-9.379,-27.584l-13.134,-34.384l-12.086,2.497l-0.327,-4.767l-131.272,-2.316l-3.599,-17.457l-35.371,5.971l-20.825,-59.428l-103.475,35.652l-1.091,-2.079l-123.82,106.261Z" style="fill:#8fb685;"/><path id="None4" serif:id="None" d="M3199.09,2102.06l19.31,-117.581l-12.643,-2.767l-21.198,-3.663l-10.792,66.459l-23.08,-3.695l-7.136,47.816l55.539,13.431Z" style="fill:#8fb685;"/></g></svg>